<svg xmlns="http://www.w3.org/2000/svg" width="512" height="512" viewBox="0 0 512 512"><path fill-rule="evenodd" d="M244.8 21.9c-7.5 2.4-12.8 7.9-14.3 14.9-1.3 6 .4 17.7 3.1 21.7 2 2.9 2.4 4.7 2.3 9.8-.2 11-.6 11.8-8 15.7-3.6 1.9-8 4.7-9.8 6.2s-4.3 2.8-5.7 2.8c-6.4 0-14.7 6-18.7 13.5-1.7 3.1-2.2 5.8-2.2 12.5-.1 6.2-.7 10.1-2.3 14.3-1.2 3.2-2.2 7.5-2.2 9.5 0 6.4-1.9 11-7.5 17.9-6.9 8.6-9 12.8-11 22.8-2 9.9-8.8 23.3-12.5 24.7-6.8 2.6-10.9 5.4-15.5 10.9-2.8 3.3-6 6.2-7.2 6.6-1.3 .3-2.2 1.3-2.2 2.4 0 1-1.1 3.4-2.4 5.4-3.9 5.8-4.9 15.2-4.3 39.5 .5 18.4 1.9 34.7 4.3 49 9.2 55.9 23.1 94.1 44.5 122 31.5 41.2 87 58.1 127.9 38.9 41.5-19.4 65-71.6 71.6-158.9 3.6-47.8-.3-102.8-7.3-103.1-.9 0-3.8-2.7-6.4-5.9-4-4.9-5.6-6.2-10.2-7.6-5-1.6-5.9-2.4-10.9-9.3-3-4.2-6.4-10.2-7.6-13.4-3.5-9.4-5.8-13.3-12-20.2-5.7-6.3-5.9-6.6-6.3-13.2-.3-4-1.6-9.5-3.2-13.4-2.3-5.8-2.5-7.2-1.7-11 2.3-9.9 .7-19.4-4.2-25.4-3.2-3.9-9.6-7.4-13.5-7.5-1.2 0-4.3-1.6-6.7-3.4-2.5-1.9-6.3-4.4-8.5-5.7-4.3-2.4-4.8-3.7-2.6-7.2 2.3-3.6 5-16.7 5-24.2 .1-9.4-2.1-20.7-4.8-24.7-3.5-5.1-7.9-7.1-16.5-7.5-4.2-.2-8.8 .1-10.3 .6m2 3.1c-5.2 1.6-9.6 5.1-11.7 9.4C232.6 39.5 232.2 48 234.5 48c1.8 0 1.9 1.4 .4 4.2-.9 1.8-.5 2.6 3.1 6.3 2.3 2.3 5.6 6.4 7.3 9.1 2.8 4.3 4.1 5.2 10.5 7.7 11.6 4.5 13.5 3 16.7-12.3 1.7-8.1 1.9-13.9 .6-18.9-.5-1.9-1.2-5.2-1.6-7.3-.4-2.5-2.1-5.4-4.7-8.2-4-4.4-4.1-4.4-10.7-4.3-3.6 0-7.9 .5-9.4 .9m-8.7 42.3c0 1.8 .4 7.3 1 12.2 .6 5.5 .6 9.5 0 10.5-.7 1.1-.9 .2-1-3.2 0-2.6-.5-4.8-1-4.8s-1 .4-1 .8c0 .4-3.1 2.5-6.9 4.5-9 4.9-9.9 6-6.4 7.8 2.7 1.4 2.7 1.4-2.8 1.9-3 .3-5.8 .1-6.1-.3-1-1.4-7.7 1.3-11.5 4.6-6.6 5.8-9.2 14.6-7.2 23.9 .6 2.9 1.3 5.5 1.4 5.7 .1 .2 1.2-.2 2.5-.9l2.2-1.2-2.1 3C196.5 135.4 188 152.9 188 154.6c0 .7-2.6 4.6-5.9 8.6-6.7 8.3-8.3 11.6-10.6 22.2-1.1 4.9-3.3 10.4-6.4 15.8-4.4 7.8-5.1 8.4-10.2 10.4-7.1 2.8-16.9 12.8-14.7 15 .2 .2 2.4-1.1 4.8-3.1 3.1-2.5 5.4-3.5 7.9-3.5 1.9 0 4.8-.7 6.4-1.5 3.6-1.9 3.7-1.9 2.9 .2-.5 1.3-.1 1.6 2.1 1.1 1.5-.3 3-.1 3.3 .5 .8 1.2 2.3-1.1 2.3-3.6 0-2.3 8-13.8 16-23.2 6.6-7.8 12.4-17.9 13.9-24.3 .5-2.3 .9-4.2 .8-4.2s-2.5 .6-5.4 1.4l-5.2 1.4 .1-2.7c0-1.5 .3-2.1 .6-1.4 .8 2.1 5 1.4 8.1-1.2 5.1-4.3 13.6-23 15.6-34.2 .4-2.5 .2-3.3-1.2-3.5-1.4-.3-1.3-.5 .5-1 1.8-.5 2.7 .1 4.3 2.7 3 4.8 11.5 12.2 15 12.9 3.4 .7 5 2.5 2.3 2.5-3.1 0-11.7-4.6-14.8-7.9l-3-3.1-2.3 8.1-2.3 8.1 5.8 10.1 5.8 10.1 .5 10.1c.6 11 1.3 12.8 6.6 15 5.2 2.2 25.6 5.4 34.2 5.4 4.4 0 10.3-.5 13.1-1.1 7.6-1.6 8.2-3.1 7.9-19.1-.1-7.3 .1-14.9 .6-16.8 .8-3.3 .7-3.4-1-2-1.5 1.3-1.5 .8 .4-2.8 1.4-2.8 1.9-4.7 1.3-5.5-.5-.6-.6-2.1-.1-3.2 1.5-3.8 1.1-4.5-2.9-4.5-8.4 0-18.1-4.5-18.2-8.5 0-.5 .7 0 1.5 1.2 1.7 2.4 9.9 5.2 15 5.2 6.3 0 11.7-5.5 13.5-13.8 .8-3.6-1.2-13.4-3.2-15.9-.6-.7-.7-1.3-.2-1.3 1.9 0 6.7 8.4 7.1 12.6 .7 6 2.9 5.8 3.8-.2 1.4-9.2-2.9-19.4-9.7-22.9-2.4-1.2-5.4-1.5-14.2-1.1-6.2 .2-12.1 .8-13.2 1.2-1.6 .6-1.8 .5-.8-.5 .7-.7 3.6-1.5 6.5-1.7 8.7-.7 10.2-1.2 8.8-2.8C280.7 92.9 270.8 87 269.5 87c-.4 0-.5 1.4-.3 3s.1 3-.4 3-.8-.5-.8-1c0-2.3-1.7-.7-3 2.8-2.3 6.3-2.3 1.9 0-5.8 1.2-3.9 1.9-7.4 1.7-7.6-.3-.3-1.7 1.5-3.2 3.8-2.1 3.4-2.6 3.8-2.1 1.7 .3-1.5 .9-3.4 1.2-4.2 .5-1.2-.3-1.7-3.3-2.2-7-1.1-13.4-5.4-16.7-11.2-1.6-2.9-3.3-5.2-3.8-5.2s-.8 1.5-.8 3.2m7.2 15.2c2.4 5.6 4.4 9.5 6 11.8 1.1 1.5 1.8 3 1.5 3.3s-2.7 0-5.4-.5-6.7-.6-8.9-.1l-4 .8 5 .1c4.5 .1 10.9 1.2 15.8 2.7 1.5 .4 1.3-.4-1.2-5-2.6-4.8-10-15.8-8.9-13.1m38.3 18c1.1 .8 2.4 1.5 2.9 1.5s.1-.7-.9-1.5c-1.1-.8-2.4-1.5-2.9-1.5s-.1 .7 .9 1.5m-63.8 10.1c-3.6 5.4-6.3 10-6.1 10.2 .7 .7 4.3-3.9 6.6-8.3 1.1-2.2 3.2-5.5 4.6-7.3s2.3-3.6 2-3.8-3.5 3.9-7.1 9.3M261 107c0 .3 .6 3.7 1.4 7.5 1.7 8.1 1.9 16.3 .5 20-.6 1.5-2.4 3.2-4.5 4.1-3.8 1.6-4.5 2.4-1.9 2.4 .9 0 3.6-2 6-4.5 4-4 4.4-4.9 4.4-9.2 0-5.5-1.9-13.5-4.3-17.8-.9-1.6-1.6-2.8-1.6-2.5m38.5 25c-.4 1.6-1.6 4.2-2.8 5.7s-2.5 5-2.9 7.8c-.6 4.4-.3 5.9 2.2 11.2 2.1 4.4 3.9 6.6 6.4 8 4.3 2.3 4.6 3.7 .5 2.3-3.6-1.3-9-7.2-9-9.9 0-1.1-.5-2-1-2-1.7 0-1.1 5.3 1 9.5 1.1 2.2 2 4.5 2 5.3s.5 2.3 1.1 3.4c.9 1.6 1.3 1.8 1.9 .7 .6-.9 1-.5 1.5 1.6 1.2 5.4 2.9 7.9 13 18.4 14.3 15 18.2 19.7 19 23.1 .5 2.1 1.1 2.8 2.2 2.4 .8-.3 2.6-.8 3.9-1.2 1.3-.3 2.4-1 2.4-1.5 0-.5 .9-.4 2.1 .2 1.1 .6 3.8 1 6 .8 3.1-.2 4.5 .3 6.7 2.4 2.6 2.5 5.2 3.5 5.2 2.1 0-.4-1.5-2.6-3.2-5-3.2-4.3-9.9-8.4-13.7-8.4-3 0-13.7-15.2-17.6-24.9-3.1-7.9-4.8-10.5-12-18.6-2.9-3.3-3.7-3.7-4.5-2.5-.5 .8-1 2.4-1 3.5 0 1.8-.2 1.8-1 .3-.6-1.1-.6-3.4 .2-6.8 .9-3.7 .9-6.6 .1-10.8-1.2-6.3-6.3-20.2-7.4-20.2-.4 0-1 1.3-1.4 3M192.2 134c-1.8 4.8-2.3 8.2-1.3 7.5 .6-.4 1-1.1 1-1.8 0-.6 .7-1.9 1.6-2.9 1.2-1.3 1.3-2.2 .6-3.6-.9-1.7-1.1-1.6-1.9 .7m44.3 .9a1.1 1.1 0 0 0 .3 1.5c1.2 .7 4.1-.4 4.1-1.5 0-1.2-3.7-1.2-4.5 0m52.2-.3c-.8 .8 .1 2.4 1.4 2.4 .5 0 .9-.7 .9-1.5 0-1.5-1.2-2-2.3-.9M249.5 141c-.4 .6 .5 1 1.9 1 1.4 0 2.6-.5 2.6-1s-.9-1-1.9-1-2.2 .5-2.6 1m-4 1c-.3 .6 .1 1 .9 1s1.6-.5 1.6-1-.4-1-.9-1-1.2 .5-1.6 1m-23.5 3.9c0 1 3.6 2.1 6.5 2 1.6-.1 1.3-.4-1-1.4-3.5-1.6-5.5-1.8-5.5-.6m44.2 4.6c-.3 5.6-2.3 7.9-7.2 8.6-4.3 .6-4.4 .6-.8 .8 2 .1 4.3 .4 5.1 .7 2 .8 4-4.4 3.5-9.2-.3-3.2-.4-3.3-.6-.9M230 149.8c0 2 4.7 7.8 7.4 9 1.5 .7 2.9 1.2 3 1s-2.2-2.7-5.1-5.6-5.3-4.9-5.3-4.4m-22.8 10.4c-2.2 4.5-4.4 9.8-4.8 11.8-1.2 5.8-7 16.3-12.2 22.1-12.9 14.3-16.8 19.9-17.8 25.3-.4 2-1.1 3.9-1.6 4.2s-.9 1.7-.9 3c0 1.7-.8 2.8-2.5 3.4-1.4 .5-2.8 1.6-3.1 2.5s-2.2 2-4.2 2.6c-5.3 1.5-18.1 2.3-19.5 1.1-.7-.5-3.2-.9-5.7-.8-4.4 .2-4.5 .3-5.9 4.7-2 6.4-2.6 30.8-1.2 47.3 7.3 86.3 32.1 148.2 71.3 177.7 9.6 7.3 27.3 16.1 38.3 19.1 12.3 3.4 35 3.8 47 1 46.1-10.9 73.7-58.7 83-143.1 2.4-22 2.8-30.2 2.8-56 0-25.2-.4-32.3-2.4-47.1l-1.1-8.6-3.1 .1c-1.7 .1-3.9 .8-4.9 1.7-2.5 2.3-15.8 1.8-19.5-.7-1.5-1-3.6-2.3-4.6-2.8-1.1-.6-2.7-3.6-3.8-7.5-1.8-6.1-2.7-7.3-15.3-20-13.9-14.1-20.2-22.6-23.1-31.2-2.2-6.5-3.6-4.6-2.8 3.7 .3 3.3 .7 9.4 .7 13.7s.4 8 .8 8.4 .8 1.7 .8 2.8 .9 3.8 2 6.1c1.8 3.7 4.8 17.6 5.5 25.1 .1 1.6 1.2 6.5 2.3 10.7s2.6 12.3 3.2 18 1.3 11.2 1.6 12.4c.4 1.5-.2 2.4-2 3.4-2.1 1.1-2.6 2.3-3.1 7.5-1.2 11.4-1.6 13.5-4.1 20.7-1.4 4-2.5 9.1-2.5 11.3s-.7 6.7-1.5 9.9c-.8 3.2-1.5 9.4-1.5 14 0 11.8-2 19.6-9.9 39.1-3.8 9.5-7.5 20.3-8.2 24-1.1 6.3-1 6.9 .9 8.9 1.8 1.9 2 3.1 1.5 10.2-.5 7.1-.2 9 2.6 17.3 1.7 5.1 3.1 10.4 3.1 11.7 0 8.1-7.6 11.8-16.6 8.1-3.2-1.4-3.6-1.3-5.5 .5-1.5 1.5-3.3 2-8.2 1.9-8 0-13.2-2.4-18.4-8.3-4.1-4.6-5.3-8-5.3-14.1 0-1.8-.9-4.4-2-5.8-2.8-3.6-5-9.1-5-12.8 0-1.8 2-7 4.6-12.1l4.6-9-.7-7.7c-.4-4.2-2.2-13.8-4.1-21.2-2.9-11.5-3.4-14.9-3.2-23 .3-9 .5-10 4.6-18 4.2-8.3 4.3-8.6 3.8-16-.3-4.1-1.5-10.2-2.7-13.5s-3-9.2-4-13c-1.7-6.4-2.1-7.2-5.7-9-3.8-2-3.9-2.1-3.4-7 .6-6 .4-16.4-.5-34.2-.8-14.6 .4-26.5 3.5-34.8 1-2.8 2.2-5.9 2.6-7s.8-6.3 .9-11.5c.2-10.4-.5-12.9-6.8-23.3l-3.5-5.8zM223 152.8c0 .5 .7 1.2 1.6 1.6 1 .4 1.4 .1 1.2-.6-.5-1.5-2.8-2.3-2.8-1m18-.1c0 .4 .4 1.4 .9 2.2 1.2 1.8 2.5 .7 1.7-1.4-.6-1.6-2.7-2.2-2.6-.8m41.1 2.8c-.2 3.4-2.1 4.4-7 3.9-4-.4-4.3-.3-2.1 .6 7.1 3.2 7.5 3.6 7.4 8.1-.1 3.3-.7 4.7-2.8 6.5L274.9 177h2.5c1.9 0 2.7-.8 3.6-3.5 .6-1.9 1.1-5.2 .9-7.2s.1-5 .5-6.4c.4-1.5 .5-3.5 .3-4.5-.4-1.6-.5-1.6-.6 .2M226 156.5c0 .3 .2 .5 .5 .5s.5-.2 .5-.5-.2-.5-.5-.5-.5 .2-.5 .5m1 2.3c0 1.1 3.9 4.6 4.5 4 .7-.7-2.4-4.8-3.5-4.8-.5 0-.9 .4-.9 .8m37.6 11.4c-.7 3.8-3.6 6.4-5.9 5.1-.9-.5-.9-.4-.1 .5 .6 .7 2.2 1.1 3.4 .9 2.7-.4 5.1-5.3 4-8.3-.6-1.6-.8-1.3-1.4 1.7m-20.9 .5c.9 2.5 2.4 4.2 3.6 4.2 .6 0 .3-.8-.6-1.8s-1.7-2.4-1.7-3-.4-1.2-1-1.2-.7 .8-.3 1.8m.3 9.2c1.4 4.4 3 8.3 3.5 8.8 .5 .4 .6 .1 .3-.9-.3-.9-.9-3.4-1.3-5.5-.6-3.1-3.9-10.3-4.8-10.3-.1 0 .9 3.6 2.4 8m-55.8-5.2c-2 1.7-5.8 7.2-5 7.2 .2 0 2.4-2 4.8-4.5 4.2-4.3 4.4-6.4 .2-2.8m121.8-.2c0 .6 1.1 2.4 2.5 4s2.5 2.5 2.5 2-1.1-2.4-2.5-4-2.5-2.5-2.5-2m-38.7 2.2a.9 .9 0 0 0 1.3 0c.4-.4 .1-.7-.7-.7s-1 .3-.7 .7m-83.2 7.4c-5.8 6.5-5.8 7.7 .2 2.8 3.2-2.7 6.4-7.5 5.4-8.4-.2-.2-2.7 2.4-5.6 5.6m117.1-3.6c2.1 4 5.3 6.8 10.7 9.4l4.5 2.1-3.5-2.8c-1.9-1.5-5.7-4.8-8.4-7.3-4.5-4.1-4.8-4.2-3.4-1.5m-41.5 .8c-.3 .7 .1 2.1 .8 3.1 1.3 1.7 1.3 1.7 2.3 0 .5-1 .7-2.4 .5-3.1-.6-1.6-2.9-1.6-3.6 0m15.4 2.4c-.1 1.2-.4 3-.7 4-.5 1.7-.5 1.7 .6 .1 .6-1 .9-2.8 .7-4-.4-2.2-.4-2.2-.6-.1M278 190.5c0 .3 .2 .5 .5 .5s.5-.2 .5-.5-.2-.5-.5-.5-.5 .2-.5 .5m-54.8 6.3c.3 1.7 .1 3.2-.4 3.2-2.1 0-4 8.1-4.9 21.8-.9 13.3-.9 15.5 1 24.1 1.2 5.9 1.7 10.1 1.1 11.1-1.5 2.8-2.4 14.9-1.1 14.9 .7 0 1.1-1.7 1.1-3.9 0-5 1.6-6.1 2.4-1.7l.6 3.3 5.7-2.1c4.7-1.7 8.1-2.1 19.1-2.1l13.3 0-.6-5c-.3-2.8-.6-7.4-.6-10.3 0-5-.1-5.2-2-4.2-2.5 1.3-2.6 .2-.3-1.5 1.6-1.2 1.6-1.4-.1-3.3-1-1.1-3.8-3-6.2-4.2S247 234.6 247 234.4c0-1.1 5.9 1.1 10.3 3.7 2.6 1.6 5.4 2.6 6.2 2.3 1.8-.7 1.9 0 .3 2.5-.9 1.4-.8 4.7 .2 14 1.1 10.3 1.6 12.1 2.9 11.5 6.2-2.5 28-2.1 33.1 .6 1.2 .6 2.4 .9 2.7 .6 .3-.3 0-3.6-.6-7.3-.6-3.7-1.3-8.8-1.7-11.3s-1-6.1-1.4-8a583 583 0 0 1-1.5-6.3c-.5-2.4-.9-2.6-2.1-1.6-1.8 1.5-2-.5-.4-4.6 .7-1.9 .7-3.9-.2-6.8-.6-2.3-1.3-6-1.5-8.3-.3-4.5-2.8-11.4-4.1-11.3-.4 0-3.3 .7-6.3 1.5-9.9 2.7-39.2 1.4-42.5-1.8-.7-.6-.3-.7 1-.2 3.7 1.4 30.7 1.8 38 .6 8.1-1.4 10-2.3 9.2-4.4-.5-1.3-1.1-1.3-4.9 0-6 2.1-20.3 2.8-30.9 1.3-8.5-1.2-24.4-4.8-28.3-6.5-1.7-.7-1.8-.5-1.4 2.3m106.5 5.7c1.7 2.2 4.1 4.9 5.3 6l2.3 2-1.1-2c-.6-1.1-3-3.8-5.3-6l-4.3-4zm-98.2-.6c3.6 1.5 8.1 2.3 7 1.3-.6-.5-2.8-1.2-5-1.6-2.5-.4-3.3-.3-2 .2m2.5 8.6c0 .2 1.9 1.3 4.2 2.5s8.3 4.9 13.3 8.1c5 3.2 9.4 5.9 9.8 5.9 3.1 0-6.9-8.2-15.1-12.4C241.8 212.4 234 209.7 234 210.5m44.2 3.1c-1.2 .8-2.2 2.3-2.2 3.2 0 .9-.9 3-2 4.7-2.6 3.9-2.6 5.3 0 3 2-1.8 7.3-11.4 6.7-12.1-.2-.2-1.3 .4-2.5 1.2M266 221.4c0 3.1 .4 5.5 .8 5.2 .8-.5 .4-9.7-.4-10.5-.2-.2-.4 2.2-.4 5.3m-27.3-.8c-.9 .9 7.3 6.9 14.2 10.4 7 3.6 8 3.7 5.6 1-1-1.1-2.3-2-2.8-2s-3.3-1.7-6.1-3.8c-4.7-3.5-8.9-6.2-9.9-6.2-.2 0-.7 .3-1 .6m96 1.3c-.3 1.1 0 2.7 .7 3.6 1.1 1.5 1.3 1.5 1.8-.6 .6-2.4 0-5.1-1.3-5.1-.4 0-1 .9-1.3 2m-171-.2c-2.1 .5-2.1 .7-.6 3.6 1.5 2.9 1.4 2.8 3.2 2.1 3.1-1.2 .7-6.4-2.6-5.7m175.2 .7c0 .8-.3 2.1-.6 3-.9 2.4 1.5 1.9 3.7-.7 2.5-3 2.4-3.8-.6-3.8-1.5 0-2.5 .6-2.5 1.4m8 2.3c0 2.3 0 4.5 0 4.8s.3 .6 .8 .8c1.2 .4 1.5-6 .3-8-.8-1.4-1-.9-1.1 2.5m4 1.7c0 4.3 .2 4.7 1.6 3.5 1.1-.9 1.4-2.1 .9-3.9-1.2-4.8-2.5-4.6-2.5 .3m-191.7-2.8a.9 .9 0 0 0 1.3 0c.4-.4 .1-.7-.7-.7s-1 .3-.7 .7m-11.1 1c-1.7 .7-1.6 2.3 .1 2.3 .8 0 1.7-.7 2-1.5 .6-1.5 .1-1.7-2.1-.8m2.6 4.3c-1.2 3.8-1.2 5-.3 5 1.4 0 2.3-1.9 3-6.7 .8-5.1-1-4-2.7 1.7m4.6-1.6c-.4 1.9-.4 4.2-.2 5.2 .4 1.5 .6 1.4 1.6-1 1.4-3.4 1.5-7.7 .2-7.7-.5 0-1.2 1.5-1.6 3.4m186.8-.3c-1 2.7-.9 3 .5 2.7 1-.2 1.8-1.5 2-3.1 .4-3.7-1.1-3.5-2.5 .3m13-.3c.1 1.8 .7 3.3 1.2 3.3 1.6 .1 1.7-2.5 0-4.6-1.4-1.9-1.5-1.8-1.3 1.3m8.3-1.9c-.4 .7-1.4 1-2.2 .7-.8-.3-1.4-.1-1.4 .5 0 1.5 3 2.3 4.2 1.2 .6-.6 .9-1.6 .6-2.3-.3-1-.6-1-1.2 0m-203.7 1.2a293 293 0 0 1-.4 3.7c-.3 3 1.9 2.3 2.3-.7 .2-1.3-.2-2.8-.8-3.4-.8-.8-1.1-.7-1.2 .4m132.5 .1c-.4 .7-.3 .9 .4 .4 .6-.4 1.2-.9 1.2-1.2 0-.8-.9-.4-1.6 .7M134 230c0 2.6 .8 2.9 5.2 1.6 5.8-1.7 5.7-3-.3-3.1-4.1-.1-5 .2-5 1.6m131.6 1.8c-.4 2.4-.6 4.6-.3 4.9 .8 .8 1.9-4.1 1.4-6.8-.3-1.7-.6-1.2-1.2 2m-120.7-.7c-.6 1.1-.9 2.3-.6 2.6 .8 .8 3.6-1.8 3.6-3.4 0-2.1-1.8-1.7-3 .7M264 238.5c0 .3 .2 .5 .5 .5s.5-.2 .5-.5-.2-.5-.5-.5-.5 .2-.5 .5m6 4.4c1.4 .4 4.8 1 7.5 1.4l5 .6-4-1.4c-2.2-.8-5.6-1.4-7.5-1.4-3.2 0-3.2 .1-1 .8m-4 5.9c0 .5 1 1.8 2.2 2.9 2.6 2.4 9.3 5.9 8.4 4.5-1-1.6-10.6-8.3-10.6-7.3m-34.8 22.3c-7.4 2.4-7.3 .6-1.1 20.6 2.6 8.4 4 15 4.3 20.1 .2 4.2 .7 10.2 1 13.2 .5 5 .5 5.2-.6 2.2-.6-1.8-1.4-3.2-1.8-3.2-1.2 0-6 10.7-7.1 16.1-1.4 6.5-.9 10.6 3.5 30.6 3.7 16.8 4.4 23.5 3.2 32.4-.6 4.2-.4 6 .7 7.5 1.4 1.9 1.6 1.9 3.4 .3 1-.9 3.8-2 6.2-2.4l4.3-.7-.9-5.1c-1.1-6.4-.4-56 .7-56.4 .5-.2 1.8-3.5 3-7.4 1.2-3.9 2.3-7.7 2.6-8.4 .4-1-.2-1.2-2.4-.8-3.4 .7-6.8-1.7-7.8-5.6-.6-2.3-.5-2.3 2 .8 1.5 1.8 3.5 3.2 4.5 3.2 3.9 0 8.6-9.6 7.3-14.8-.4-1.7-.3-2.2 .5-1.8 .7 .4 1.6-1.1 2.6-4.1 1.6-5.4 1.4-17.9-.7-30.3l-1.2-7.5-10-.2c-7.7-.2-11.4 .3-16.3 1.8m38.3 .8-3 .6-.2 9c-.1 6.2 .1 8.4 .7 7 .9-2 .6 1.7-.7 8.7-.6 3.1 2.2 26 4 33.6 .7 2.9 .9 5.2 .5 5.2s-1.1-1.1-1.5-2.5-1-2.5-1.4-2.5-2.2 3.6-3.9 8.1c-3.9 9.8-4.8 18.6-2.8 25.2 1.2 3.9 1.3 6.6 .5 14.5-.5 5.3-1.2 12.1-1.4 15.1-.2 3-1.1 6.7-1.9 8.4-2.8 5.6-1 10 2.9 7.1 1.1-.8 3.3-1.4 5-1.4 3.1 0 3.1 0 4.7-8.8 1-5.3 4.1-14.9 7.8-24.2 6.7-16.7 9-25.3 9-34l0-5.5-2 3.2c-2.8 4.6-3.1 4-.9-2 2.2-6.1 2.2-6.1 .9-5.3-1.2 .7-5-.3-5-1.4 0-.4 1.3-.6 2.9-.3 3 .4 4.6-1.4 6.6-7.7 .6-2.1 .5-2.3-1.1-1.7-1.5 .6-1.4 .2 .5-1.8 2-2.2 2.3-3.2 1.9-8.1-.3-3.1-.1-5.5 .3-5.5 2.4 0 6.3-18.2 5.8-27l-.3-5.5-4-.7c-4.9-.9-19.9-.8-24 .1M263 278.5c0 2.5 .5 4.5 1 4.5 .6 0 .9-1.9 .8-4.5-.1-2.5-.6-4.5-1-4.5s-.8 2-.8 4.5m-17.2 23.1c-.9 .9-2.8 1.6-4.3 1.6-2.4 0-2.5 .2-1.2 1.5s1.8 1.3 4-.2c1.4-.9 2.8-2.3 3.1-3.1 .7-1.8 .4-1.8-1.6 .2m40.7-.1c-1.5 4.9-1.5 5.1 0 3.1 1.5-1.9 2-4.6 1-4.6-.3 0-.7 .7-1 1.5m-4.1 7.6c-2.6 2.9-5.5 3.9-7.9 2.6-1.8-.9-1.9-.9-.6 .6 2.1 2.5 5.4 2 8.6-1.3 1.6-1.6 2.6-3.2 2.3-3.5s-1.4 .4-2.4 1.6m-21.2 3.6c-.6 2.1-1.4 5.4-1.7 7.4s-1.7 6.3-3 9.6c-2.1 5.3-2.3 6.7-1.5 12.3 1 7.2 .2 12.3-3.6 24.4-2 6.4-2.6 10.4-2.7 19.1-.1 6 .2 12.3 .6 13.9l.8 2.9 2.8-2.7c1.6-1.5 3.4-4.6 4-6.9 1.1-3.8 1.2-8.7 .8-38.6-.1-9 .1-10 3.9-19l4-9.5-1.1-7.7c-.6-4.2-1.4-7.9-1.7-8.3-.3-.3-1.1 1.1-1.7 3.2m-18.8 2.8c.3 .9 .6 2 .6 2.5 0 .5 .7 .6 1.5 .3 1.2-.4 1.2-.9 .3-2.5-1.4-2.3-3.2-2.6-2.3-.3m36.7 7.2c.1 3 .2 3.4 .9 1.8 1.2-2.8 1.2-5.5 0-5.5-.6 0-1 1.7-.9 3.8M271 337.5c0 .3 .2 .5 .5 .5s.5-.2 .5-.5-.2-.5-.5-.5-.5 .2-.5 .5m-20.7 10c-1.6 5.7-2.7 15.8-1.6 15.2 1.5-.9 3.5-10.8 3.1-15.2l-.4-4zM231.3 355c0 3.6 .2 5 .4 3.2s.2-4.7 0-6.5c-.2-1.8-.4-.3-.4 3.2m39.4 .5c-2 6.4-2.2 10.7-.3 5.5 1.4-3.7 2.9-11 2.3-11-.2 0-1.1 2.5-2 5.5m-19.3 50.9c-.3 .8-.3 1.9 .1 2.5 1.2 1.9 2.5 1.1 2.5-1.5 0-2.7-1.7-3.4-2.6-1m-24.2 4c-.7 1.5-1.2 3.7-1.2 4.9 0 1.8-.2 2-1.1 .7-.8-1.1-.9-.6-.5 2.3 .3 2.1 1.6 5.2 2.8 7 1.3 1.8 2.9 4.3 3.6 5.7s1 1.7 .8 .8 0-1.8 .5-1.8c.5 0 1 .6 1 1.3s1.4 4.1 3 7.4c2.8 5.6 8.3 11.3 10.9 11.3 .6 0 1.1 .5 1.1 1.1 0 1.3-3.4 .4-7.5-2.1-3.1-1.9-7.5-8.5-7.5-11.3 0-.9-.5-1.9-1.1-2.2-1.4-.8-.2 6 1.6 9.5 3.6 7.1 16.5 13.9 19 10 .3-.6 1.9-1 3.6-1 2.5 0 2.9-.4 2.9-2.6 0-1.4-.4-2.3-.9-2-.5 .3-.6-.6-.4-2 .3-1.4-.2-4.4-1.1-6.7-1.6-4.1-1.7-4.2-5.9-4-4.1 .2-4.1 .2-1.5-.9 3.5-1.5 3.6-3.8 .1-3.8-3 0-2.2-1.5 1.2-2.3 1.7-.4 1.5-.7-1.4-2l-3.4-1.5 2.6-.6c3-.8 2.7-2.8-.7-4.4l-2.2-1.1 2.1-.6c2.4-.7 3.8-5.9 1.9-7.4-.6-.5-3.1-.6-5.5-.2-3.9 .6-5.2 1.5-6.7 4.9-.1 .2-1.7-.4-3.7-1.2-2.6-1.1-3.8-2.3-4.4-4.7l-.8-3.2zm37.5 1.3c-1 .2-1.8 1.3-1.8 2.3 0 2.4-.2 2.4-5 0l-4-1.9v5.5c0 6.6 4 19.2 7.8 24.8 1.5 2.2 4 4.7 5.7 5.7 2.2 1.3 2.5 1.8 1.2 1.8-1 0-2.7-.5-3.8-1-3-1.6-2.5 1.4 .6 3.5 3.3 2.2 12.4 1.2 12.6-1.3 .4-6.2-1.9-15.4-3.7-14.7-.7 .3-2.5 .1-4.1-.3l-2.8-.8 2.8-.7c3.5-.9 3.5-2.4 .1-3.3l-2.7-.7 2.4-.9c2.3-.9 2.3-1 .6-2.3-1.8-1.3-1.8-1.4 0-2.4 1.7-1 1.7-1.1-.4-3-2.9-2.5-2.8-3.2 .1-3.2 1.7 0 2.5-.7 2.8-2.4 .3-1.3 .2-2.8-.1-3.3-.7-1.1-6-2.1-8.3-1.5M228 424.5c0 .3 .2 .5 .5 .5s.5-.2 .5-.5-.2-.5-.5-.5-.5 .2-.5 .5"/></svg>